<?xml version="1.0" standalone="no"?><!DOCTYPE svg PUBLIC "-//W3C//DTD SVG 1.1//EN" "http://www.w3.org/Graphics/SVG/1.1/DTD/svg11.dtd"><svg t="1764310395680" class="icon" viewBox="0 0 1024 1024" version="1.1" xmlns="http://www.w3.org/2000/svg" p-id="7539" xmlns:xlink="http://www.w3.org/1999/xlink" width="200" height="200"><path d="M906.666667 490.666667a32 32 0 0 0 64 0h-64zM512 949.333333a32 32 0 0 0 0-64v64zM970.666667 490.666667c0-90.709333-26.88-179.413333-77.312-254.805334l-53.205334 35.541334A394.666667 394.666667 0 0 1 906.666667 490.666667h64z m-77.312-254.805334a458.666667 458.666667 0 0 0-205.824-168.96l-24.490667 59.136a394.666667 394.666667 0 0 1 177.109333 145.365334l53.205334-35.541334z m-205.824-168.96A458.666667 458.666667 0 0 0 422.528 40.832l12.458667 62.72a394.666667 394.666667 0 0 1 228.053333 22.485333l24.490667-59.136zM422.528 40.832a458.666667 458.666667 0 0 0-234.837333 125.525333l45.226666 45.226667a394.666667 394.666667 0 0 1 202.069334-107.989333L422.528 40.832zM187.690667 166.357333a458.666667 458.666667 0 0 0-125.525334 234.837334l62.72 12.458666A394.666667 394.666667 0 0 1 232.96 211.626667L187.733333 166.4zM62.165333 401.194667a458.666667 458.666667 0 0 0 26.069334 264.96l59.136-24.448a394.666667 394.666667 0 0 1-22.442667-228.053334l-62.762667-12.458666z m26.069334 264.96a458.666667 458.666667 0 0 0 168.96 205.866666l35.541333-53.205333a394.666667 394.666667 0 0 1-145.365333-177.109333l-59.136 24.490666z m168.96 205.866666A458.666667 458.666667 0 0 0 512 949.333333v-64a394.666667 394.666667 0 0 1-219.264-66.517333l-35.541333 53.205333z" fill="#dbdbdb" p-id="7540"></path><path d="M85.333333 458.666667a32 32 0 1 0 0 64v-64z m853.333334 64a32 32 0 0 0 0-64v64z m-853.333334 0h853.333334v-64H85.333333v64z" fill="#dbdbdb" p-id="7541"></path><path d="M512 949.333333a32 32 0 0 0 0-64v64z m117.333333-458.666666a32 32 0 0 0 64 0h-64zM512 885.333333c-7.253333 0-18.688-4.138667-33.408-21.930666-14.549333-17.621333-29.098667-45.013333-41.941333-81.664-25.6-73.002667-41.984-175.914667-41.984-291.072h-64c0 120.405333 17.066667 230.826667 45.568 312.234666 14.208 40.533333 31.872 75.690667 53.034666 101.290667 20.992 25.386667 48.768 45.141333 82.730667 45.141333v-64zM394.666667 490.666667c0-115.114667 16.426667-218.026667 41.984-291.072 12.8-36.693333 27.392-64.042667 41.941333-81.664 14.72-17.792 26.197333-21.930667 33.408-21.930667V32c-33.962667 0-61.738667 19.754667-82.773333 45.141333-21.12 25.6-38.784 60.714667-52.992 101.290667C347.733333 259.882667 330.666667 370.261333 330.666667 490.666667h64zM512 96c7.253333 0 18.688 4.138667 33.408 21.930667 14.549333 17.621333 29.098667 45.013333 41.941333 81.664 25.6 73.002667 41.984 175.957333 41.984 291.072h64c0-120.405333-17.066667-230.826667-45.568-312.234667-14.208-40.533333-31.872-75.690667-53.034666-101.290667C573.738667 51.754667 545.962667 32 512 32v64zM901.12 762.453333a117.333333 117.333333 0 0 1-117.333333 117.333334v64a181.333333 181.333333 0 0 0 181.333333-181.333334h-64z m-117.333333 117.333334a117.333333 117.333333 0 0 1-117.333334-117.333334h-64a181.333333 181.333333 0 0 0 181.333334 181.333334v-64z m-117.333334-117.333334a117.333333 117.333333 0 0 1 117.333334-117.333333v-64a181.333333 181.333333 0 0 0-181.333334 181.333333h64z m117.333334-117.333333a117.333333 117.333333 0 0 1 117.333333 117.333333h64a181.333333 181.333333 0 0 0-181.333333-181.333333v64z" fill="#dbdbdb" p-id="7542"></path><path d="M958.72 982.698667a32 32 0 0 0 45.184-45.397334l-45.141333 45.397334z m-46.976-137.130667a32 32 0 1 0-45.141333 45.397333l45.141333-45.397333z m92.16 91.733333l-92.16-91.733333-45.141333 45.397333 92.16 91.733334 45.141333-45.397334z" fill="#dbdbdb" p-id="7543"></path></svg>